<?xml version="1.0" encoding="UTF-8"?>
<svg id="c" data-name="Gold Media" xmlns="http://www.w3.org/2000/svg" viewBox="0 0 500 500">
  <defs>
    <style>
      .f {
        fill: #fff;
      }

      .g {
        fill: #feb01e;
      }
    </style>
  </defs>
  <path class="g" d="M199.88,346.78c1.13,0,1.7.58,1.73,1.73l.97,23.11h-4.28l-.86-21.28h-.68l-4.64,16.67c-.22.98-.83,1.48-1.84,1.48h-3.17c-1.03,0-1.67-.49-1.91-1.48l-4.64-16.67h-.68l-.79,21.28h-4.28l.97-23.11c.05-1.15.62-1.73,1.73-1.73h4.5c.96,0,1.56.49,1.8,1.48l3.82,13.61c.17.58.31,1.15.41,1.73.11.58.23,1.15.38,1.73h.54c.14-.58.28-1.15.4-1.73.12-.58.25-1.16.4-1.76l3.82-13.57c.22-.98.83-1.48,1.84-1.48h4.5ZM223.35,346.71h3.83c1.31,0,2.6.02,3.87.07,1.27.05,2.47.12,3.6.22l-.22,3.35h-9.72c-.67,0-1.17.17-1.49.5s-.49.86-.49,1.58v13.54c0,.72.16,1.25.49,1.58s.82.5,1.49.5h9.72l.22,3.35c-1.13.1-2.33.16-3.6.2s-2.56.06-3.87.07c-1.31.01-2.59.02-3.83.02-1.54,0-2.77-.43-3.69-1.28-.92-.85-1.4-2-1.42-3.44v-15.55c.02-1.44.5-2.59,1.42-3.44.92-.85,2.15-1.28,3.69-1.28ZM218.89,356.97h14.18v3.31h-14.18v-3.31ZM259.14,346.46c1.87,0,3.46.21,4.77.63,1.31.42,2.36,1.12,3.17,2.09.8.97,1.39,2.28,1.75,3.92.36,1.64.54,3.68.54,6.1s-.18,4.46-.54,6.1c-.36,1.64-.94,2.95-1.75,3.92-.8.97-1.86,1.67-3.17,2.09-1.31.42-2.9.63-4.77.63s-3.47-.03-5-.09c-1.54-.06-2.99-.14-4.36-.23l1.87-3.46c.96.05,2.06.09,3.31.13,1.25.04,2.64.05,4.18.05,1.39,0,2.49-.27,3.29-.81.8-.54,1.37-1.48,1.71-2.81s.5-3.17.5-5.53-.17-4.19-.5-5.53-.91-2.27-1.71-2.83c-.8-.55-1.9-.83-3.29-.83-1.49,0-2.81.01-3.98.04s-2.3.04-3.4.04l-1.98-3.31c1.37-.1,2.81-.17,4.34-.23,1.52-.06,3.2-.09,5.02-.09ZM254.28,346.78v24.84h-4.5v-24.84h4.5ZM289.38,346.78v24.84h-4.5v-24.84h4.5ZM316.66,346.78c.38,0,.72.11,1.01.32s.49.5.61.86l7.52,23.65h-4.61l-5.69-19.15c-.1-.38-.19-.77-.29-1.15-.1-.38-.18-.76-.25-1.12h-1.01c-.07.36-.16.73-.25,1.12-.1.38-.21.77-.32,1.15l-5.65,19.15h-4.61l7.52-23.65c.1-.36.29-.65.59-.86s.64-.32,1.03-.32h4.39ZM320.84,361v3.53h-12.78v-3.53h12.78ZM142.87,356.62h-60v4h60v-4ZM417.13,356.62h-60v4h60v-4Z"/>
  <path class="f" d="M85.82,300.73v33.12h-7.34v-33.12h7.34ZM98.11,313.45v5.52h-12.67v-5.52h12.67ZM104.92,300.73v33.12h-7.34v-33.12h7.34ZM136.31,300.06c2.62,0,4.85.28,6.67.84,1.82.56,3.29,1.49,4.39,2.78s1.91,3.06,2.42,5.28c.51,2.22.77,5,.77,8.33s-.26,6.1-.77,8.33c-.51,2.22-1.32,3.98-2.42,5.28s-2.57,2.22-4.39,2.78c-1.82.56-4.05.84-6.67.84s-4.85-.28-6.67-.84c-1.82-.56-3.3-1.49-4.42-2.78s-1.94-3.06-2.45-5.28c-.51-2.22-.77-5-.77-8.33s.26-6.1.77-8.33c.51-2.22,1.33-3.98,2.45-5.28s2.59-2.22,4.42-2.78c1.82-.56,4.05-.84,6.67-.84ZM136.31,305.86c-1.7,0-3.02.34-3.96,1.01s-1.62,1.83-2.02,3.48c-.4,1.65-.6,3.96-.6,6.94s.2,5.25.6,6.91c.4,1.66,1.07,2.83,2.02,3.5s2.26,1.01,3.96,1.01,2.97-.34,3.91-1.01,1.62-1.84,2.02-3.5c.4-1.66.6-3.97.6-6.91s-.2-5.29-.6-6.94c-.4-1.65-1.07-2.81-2.02-3.48s-2.25-1.01-3.91-1.01ZM174.9,300.73v24.77c0,.8.22,1.41.67,1.82.45.42,1.09.62,1.92.62h11.57l.34,5.52c-2.27.26-4.65.41-7.13.46-2.48.05-4.95.07-7.42.07s-4.22-.65-5.45-1.94c-1.23-1.3-1.85-2.95-1.85-4.97v-26.35h7.34ZM217.58,300.06c2.62,0,4.85.28,6.67.84,1.82.56,3.29,1.49,4.39,2.78s1.91,3.06,2.42,5.28c.51,2.22.77,5,.77,8.33s-.26,6.1-.77,8.33c-.51,2.22-1.32,3.98-2.42,5.28s-2.57,2.22-4.39,2.78c-1.82.56-4.05.84-6.67.84s-4.85-.28-6.67-.84c-1.82-.56-3.3-1.49-4.42-2.78s-1.94-3.06-2.45-5.28c-.51-2.22-.77-5-.77-8.33s.26-6.1.77-8.33c.51-2.22,1.33-3.98,2.45-5.28s2.59-2.22,4.42-2.78c1.82-.56,4.05-.84,6.67-.84ZM217.58,305.86c-1.7,0-3.02.34-3.96,1.01s-1.62,1.83-2.02,3.48c-.4,1.65-.6,3.96-.6,6.94s.2,5.25.6,6.91c.4,1.66,1.07,2.83,2.02,3.5s2.26,1.01,3.96,1.01,2.97-.34,3.91-1.01,1.62-1.84,2.02-3.5c.4-1.66.6-3.97.6-6.91s-.2-5.29-.6-6.94c-.4-1.65-1.07-2.81-2.02-3.48s-2.25-1.01-3.91-1.01ZM259.86,300.1c1.63,0,3.41.09,5.33.26,1.92.18,3.79.54,5.62,1.08l-.48,4.85c-1.41-.03-3.06-.06-4.94-.1-1.89-.03-3.74-.05-5.57-.05-.9,0-1.66.02-2.28.07-.62.05-1.13.18-1.51.38-.38.21-.66.52-.82.94-.16.42-.24.99-.24,1.73,0,1.12.26,1.94.79,2.45.53.51,1.43.98,2.71,1.39l6.38,2.06c2.66.9,4.5,2.11,5.52,3.65,1.02,1.54,1.54,3.55,1.54,6.05,0,1.89-.22,3.46-.67,4.71-.45,1.25-1.15,2.22-2.11,2.93-.96.7-2.22,1.21-3.79,1.51s-3.49.46-5.76.46c-1.09,0-2.64-.07-4.66-.22-2.02-.14-4.32-.5-6.91-1.08l.48-5.18c1.89.03,3.53.07,4.92.12,1.39.05,2.58.08,3.58.1.99.02,1.86.02,2.59.02,1.28,0,2.28-.08,3-.24.72-.16,1.22-.48,1.51-.96.29-.48.43-1.17.43-2.06,0-.77-.1-1.38-.31-1.85-.21-.46-.54-.83-1.01-1.1-.46-.27-1.1-.52-1.9-.74l-6.72-2.3c-2.53-.93-4.32-2.14-5.38-3.65-1.06-1.5-1.58-3.49-1.58-5.95,0-1.92.23-3.48.7-4.68.46-1.2,1.18-2.14,2.16-2.81.98-.67,2.24-1.14,3.79-1.39,1.55-.26,3.42-.38,5.59-.38ZM315.06,300.73v19.92c0,3.36-.42,6.06-1.25,8.09-.83,2.03-2.2,3.5-4.1,4.42-1.9.91-4.44,1.37-7.61,1.37-3.36,0-6.05-.46-8.06-1.37-2.02-.91-3.47-2.38-4.37-4.42-.9-2.03-1.34-4.73-1.34-8.09v-19.92h7.34v19.92c0,2.08.18,3.7.55,4.87.37,1.17,1,1.99,1.9,2.47.9.48,2.1.72,3.6.72s2.7-.24,3.58-.72c.88-.48,1.5-1.3,1.87-2.47s.55-2.79.55-4.87v-19.92h7.34ZM340.36,300.73v33.12h-7.3v-33.12h7.3ZM383.32,300.73v5.76h-27.26v-5.76h27.26ZM373.34,300.73v33.12h-7.34v-33.12h7.34ZM405.78,300.58c1.79,0,3.6,0,5.42.02,1.82.02,3.62.06,5.38.12,1.76.06,3.41.18,4.94.34l-.34,5.33h-12.72c-.8,0-1.4.21-1.8.62-.4.42-.6,1.02-.6,1.82v16.9c0,.8.2,1.41.6,1.82.4.42,1,.62,1.8.62h12.72l.34,5.33c-1.54.13-3.19.23-4.94.31-1.76.08-3.55.13-5.38.14-1.82.02-3.63.02-5.42.02-2.11,0-3.82-.62-5.11-1.85-1.3-1.23-1.94-2.84-1.94-4.82v-20.06c0-2.02.65-3.63,1.94-4.85,1.3-1.22,3-1.82,5.11-1.82ZM399.59,314.02h19.82v5.18h-19.82v-5.18ZM88.51,257.83c.02,10.26,3.76,18.88,12.48,24.82,5.01,3.42,10.69,4.88,16.73,5.24,3.4.2,3.61.22,3.61-3.23,0-19.95.04-39.9-.03-59.85,0-2.27.6-3.13,3.03-3.13,24.94.09,49.88.06,74.82.07,3.66,0,3.87.23,3.87,3.81,0,10.91-.2,21.82.04,32.73.25,11.63,5.58,20.34,15.95,25.86,5.23,2.79,10.93,3.45,16.69,3.88,1.22.09,1.93-.47,1.97-1.74.03-.86.06-1.71.06-2.57,0-33.67,0-67.33,0-101,0-.81-.28-1.73.52-2.38.96-.04,1.34.75,1.85,1.29,10.73,11.41,21.46,22.82,32.17,34.24,6.77,7.22,13.55,14.43,20.26,21.7,1.28,1.39,2.15,1.39,3.32-.1,1.44-1.83,3.05-3.54,4.62-5.27,11.82-13.05,23.65-26.1,35.48-39.13,2.67-2.94,5.39-5.84,8.1-8.75.48-.51,1.02-1.07,1.81-.72.68.3.64,1,.66,1.63.01.47,0,.93,0,1.4,0,16.21,0,32.42,0,48.63s.03,33.36-.04,50.04c-.01,2.18.74,3.01,2.84,2.79,3.09-.32,6.25-.34,9.28-.97,11.62-2.41,19.09-9.79,19.08-22.35-.04-44.5-.02-89-.02-133.5,0-.39-.03-.78,0-1.17.1-1.44-.6-1.86-1.98-1.84-6.08.08-12.18.44-18.23,0-4.61-.34-7.52,1.37-10.55,4.64-16.69,18.1-33.61,35.99-50.45,53.95-2.15,2.29-2.2,2.32-4.3.04-4.44-4.81-8.82-9.67-13.23-14.5-13.09-14.32-26.2-28.62-39.26-42.96-1.02-1.13-2.15-1.36-3.53-1.36-9.82.02-19.64,0-29.46,0-3.64,0-3.65.02-3.65,3.64-.01,17.61-.04,35.23,0,52.84,0,2.07-.59,2.93-2.78,2.92-25.48-.05-50.97-.05-76.45,0-1.99,0-2.55-.78-2.51-2.64.09-4.6.04-9.19.04-13.79,0-13.25,0-26.5,0-39.75,0-1.53.12-2.94-2.2-2.92-9.51.08-19.02.06-28.52.01-1.68,0-2.17.75-2.15,2.28.05,2.65,0,5.3,0,8.18,0,39.83-.04,79.42.04,119.01Z"/>
</svg>